<?xml version="1.0" encoding="utf-8" standalone="no"?>
<!DOCTYPE svg PUBLIC "-//W3C//DTD SVG 1.1//EN"
  "http://www.w3.org/Graphics/SVG/1.1/DTD/svg11.dtd">
<!-- Created with matplotlib (http://matplotlib.org/) -->
<svg height="270pt" version="1.1" viewBox="0 0 480 270" width="480pt" xmlns="http://www.w3.org/2000/svg" xmlns:xlink="http://www.w3.org/1999/xlink">
 <defs>
  <style type="text/css">
*{stroke-linecap:butt;stroke-linejoin:round;stroke-miterlimit:100000;}
  </style>
 </defs>
 <g id="figure_1">
  <g id="patch_1">
   <path d="M 0 270.72 
L 480.96 270.72 
L 480.96 0 
L 0 0 
z
" style="fill:#ffffff;"/>
  </g>
  <g id="axes_1">
   <g id="patch_2">
    <path d="M 60.12 192.565714 
L 432.864 192.565714 
L 432.864 27.072 
L 60.12 27.072 
z
" style="fill:#ffffff;"/>
   </g>
   <g id="line2d_1">
    <path clip-path="url(#p8ed5d005f1)" d="M 60.12 174.177524 
L 88.792615 174.177524 
L 117.465231 174.177524 
L 146.137846 168.048127 
L 174.810462 122.69059 
L 203.483077 39.637263 
L 232.155692 39.637263 
L 260.828308 39.637263 
L 289.500923 39.637263 
L 318.173538 39.637263 
L 346.846154 39.637263 
L 375.518769 39.637263 
L 404.191385 39.637263 
L 432.864 39.637263 
" style="fill:none;stroke:#ff0000;stroke-linecap:square;"/>
    <defs>
     <path d="M 0 3 
C 0.795609 3 1.55874 2.683901 2.12132 2.12132 
C 2.683901 1.55874 3 0.795609 3 0 
C 3 -0.795609 2.683901 -1.55874 2.12132 -2.12132 
C 1.55874 -2.683901 0.795609 -3 0 -3 
C -0.795609 -3 -1.55874 -2.683901 -2.12132 -2.12132 
C -2.683901 -1.55874 -3 -0.795609 -3 0 
C -3 0.795609 -2.683901 1.55874 -2.12132 2.12132 
C -1.55874 2.683901 -0.795609 3 0 3 
z
" id="me6b6d4a97e" style="stroke:#000000;stroke-width:0.5;"/>
    </defs>
    <g clip-path="url(#p8ed5d005f1)">
     <use style="fill:#ff0000;stroke:#000000;stroke-width:0.5;" x="60.12" xlink:href="#me6b6d4a97e" y="174.17752381"/>
     <use style="fill:#ff0000;stroke:#000000;stroke-width:0.5;" x="88.7926153846" xlink:href="#me6b6d4a97e" y="174.17752381"/>
     <use style="fill:#ff0000;stroke:#000000;stroke-width:0.5;" x="117.465230769" xlink:href="#me6b6d4a97e" y="174.17752381"/>
     <use style="fill:#ff0000;stroke:#000000;stroke-width:0.5;" x="146.137846154" xlink:href="#me6b6d4a97e" y="168.048126981"/>
     <use style="fill:#ff0000;stroke:#000000;stroke-width:0.5;" x="174.810461538" xlink:href="#me6b6d4a97e" y="122.690590476"/>
     <use style="fill:#ff0000;stroke:#000000;stroke-width:0.5;" x="203.483076923" xlink:href="#me6b6d4a97e" y="39.6372634951"/>
     <use style="fill:#ff0000;stroke:#000000;stroke-width:0.5;" x="232.155692308" xlink:href="#me6b6d4a97e" y="39.6372634951"/>
     <use style="fill:#ff0000;stroke:#000000;stroke-width:0.5;" x="260.828307692" xlink:href="#me6b6d4a97e" y="39.6372634951"/>
     <use style="fill:#ff0000;stroke:#000000;stroke-width:0.5;" x="289.500923077" xlink:href="#me6b6d4a97e" y="39.6372634951"/>
     <use style="fill:#ff0000;stroke:#000000;stroke-width:0.5;" x="318.173538462" xlink:href="#me6b6d4a97e" y="39.6372634951"/>
     <use style="fill:#ff0000;stroke:#000000;stroke-width:0.5;" x="346.846153846" xlink:href="#me6b6d4a97e" y="39.6372634951"/>
     <use style="fill:#ff0000;stroke:#000000;stroke-width:0.5;" x="375.518769231" xlink:href="#me6b6d4a97e" y="39.6372634951"/>
     <use style="fill:#ff0000;stroke:#000000;stroke-width:0.5;" x="404.191384615" xlink:href="#me6b6d4a97e" y="39.6372634951"/>
     <use style="fill:#ff0000;stroke:#000000;stroke-width:0.5;" x="432.864" xlink:href="#me6b6d4a97e" y="39.6372634951"/>
    </g>
   </g>
   <g id="line2d_2">
    <path clip-path="url(#p8ed5d005f1)" d="M 60.12 174.177524 
L 88.792615 174.177524 
L 117.465231 174.177524 
L 146.137846 174.177524 
L 174.810462 168.048127 
L 203.483077 80.704222 
L 232.155692 71.510127 
L 260.828308 39.637263 
L 289.500923 39.637263 
L 318.173538 39.637263 
L 346.846154 39.637263 
L 375.518769 39.637263 
L 404.191385 39.637263 
L 432.864 39.637263 
" style="fill:none;stroke:#0000ff;stroke-linecap:square;"/>
    <defs>
     <path d="M -3 3 
L 3 -3 
M -3 -3 
L 3 3 
" id="m563a0ec1de" style="stroke:#0000ff;stroke-width:0.5;"/>
    </defs>
    <g clip-path="url(#p8ed5d005f1)">
     <use style="fill:#0000ff;stroke:#0000ff;stroke-width:0.5;" x="60.12" xlink:href="#m563a0ec1de" y="174.17752381"/>
     <use style="fill:#0000ff;stroke:#0000ff;stroke-width:0.5;" x="88.7926153846" xlink:href="#m563a0ec1de" y="174.17752381"/>
     <use style="fill:#0000ff;stroke:#0000ff;stroke-width:0.5;" x="117.465230769" xlink:href="#m563a0ec1de" y="174.17752381"/>
     <use style="fill:#0000ff;stroke:#0000ff;stroke-width:0.5;" x="146.137846154" xlink:href="#m563a0ec1de" y="174.17752381"/>
     <use style="fill:#0000ff;stroke:#0000ff;stroke-width:0.5;" x="174.810461538" xlink:href="#m563a0ec1de" y="168.048126981"/>
     <use style="fill:#0000ff;stroke:#0000ff;stroke-width:0.5;" x="203.483076923" xlink:href="#m563a0ec1de" y="80.7042222192"/>
     <use style="fill:#0000ff;stroke:#0000ff;stroke-width:0.5;" x="232.155692308" xlink:href="#m563a0ec1de" y="71.5101269811"/>
     <use style="fill:#0000ff;stroke:#0000ff;stroke-width:0.5;" x="260.828307692" xlink:href="#m563a0ec1de" y="39.6372634951"/>
     <use style="fill:#0000ff;stroke:#0000ff;stroke-width:0.5;" x="289.500923077" xlink:href="#m563a0ec1de" y="39.6372634951"/>
     <use style="fill:#0000ff;stroke:#0000ff;stroke-width:0.5;" x="318.173538462" xlink:href="#m563a0ec1de" y="39.6372634951"/>
     <use style="fill:#0000ff;stroke:#0000ff;stroke-width:0.5;" x="346.846153846" xlink:href="#m563a0ec1de" y="39.6372634951"/>
     <use style="fill:#0000ff;stroke:#0000ff;stroke-width:0.5;" x="375.518769231" xlink:href="#m563a0ec1de" y="39.6372634951"/>
     <use style="fill:#0000ff;stroke:#0000ff;stroke-width:0.5;" x="404.191384615" xlink:href="#m563a0ec1de" y="39.6372634951"/>
     <use style="fill:#0000ff;stroke:#0000ff;stroke-width:0.5;" x="432.864" xlink:href="#m563a0ec1de" y="39.6372634951"/>
    </g>
   </g>
   <g id="line2d_3">
    <path clip-path="url(#p8ed5d005f1)" d="M 60.12 174.177524 
L 88.792615 174.177524 
L 117.465231 174.177524 
L 146.137846 174.177524 
L 174.810462 174.177524 
L 203.483077 174.177524 
L 232.155692 174.177524 
L 260.828308 168.048127 
L 289.500923 149.659937 
L 318.173538 39.637263 
L 346.846154 39.637263 
L 375.518769 39.637263 
L 404.191385 39.637263 
L 432.864 39.637263 
" style="fill:none;stroke:#008000;stroke-linecap:square;"/>
    <defs>
     <path d="M 3 0 
L -3 -3 
L -3 3 
z
" id="m75a3b83b14" style="stroke:#000000;stroke-linejoin:miter;stroke-width:0.5;"/>
    </defs>
    <g clip-path="url(#p8ed5d005f1)">
     <use style="fill:#008000;stroke:#000000;stroke-linejoin:miter;stroke-width:0.5;" x="60.12" xlink:href="#m75a3b83b14" y="174.17752381"/>
     <use style="fill:#008000;stroke:#000000;stroke-linejoin:miter;stroke-width:0.5;" x="88.7926153846" xlink:href="#m75a3b83b14" y="174.17752381"/>
     <use style="fill:#008000;stroke:#000000;stroke-linejoin:miter;stroke-width:0.5;" x="117.465230769" xlink:href="#m75a3b83b14" y="174.17752381"/>
     <use style="fill:#008000;stroke:#000000;stroke-linejoin:miter;stroke-width:0.5;" x="146.137846154" xlink:href="#m75a3b83b14" y="174.17752381"/>
     <use style="fill:#008000;stroke:#000000;stroke-linejoin:miter;stroke-width:0.5;" x="174.810461538" xlink:href="#m75a3b83b14" y="174.17752381"/>
     <use style="fill:#008000;stroke:#000000;stroke-linejoin:miter;stroke-width:0.5;" x="203.483076923" xlink:href="#m75a3b83b14" y="174.17752381"/>
     <use style="fill:#008000;stroke:#000000;stroke-linejoin:miter;stroke-width:0.5;" x="232.155692308" xlink:href="#m75a3b83b14" y="174.17752381"/>
     <use style="fill:#008000;stroke:#000000;stroke-linejoin:miter;stroke-width:0.5;" x="260.828307692" xlink:href="#m75a3b83b14" y="168.048126981"/>
     <use style="fill:#008000;stroke:#000000;stroke-linejoin:miter;stroke-width:0.5;" x="289.500923077" xlink:href="#m75a3b83b14" y="149.659936505"/>
     <use style="fill:#008000;stroke:#000000;stroke-linejoin:miter;stroke-width:0.5;" x="318.173538462" xlink:href="#m75a3b83b14" y="39.6372634951"/>
     <use style="fill:#008000;stroke:#000000;stroke-linejoin:miter;stroke-width:0.5;" x="346.846153846" xlink:href="#m75a3b83b14" y="39.6372634951"/>
     <use style="fill:#008000;stroke:#000000;stroke-linejoin:miter;stroke-width:0.5;" x="375.518769231" xlink:href="#m75a3b83b14" y="39.6372634951"/>
     <use style="fill:#008000;stroke:#000000;stroke-linejoin:miter;stroke-width:0.5;" x="404.191384615" xlink:href="#m75a3b83b14" y="39.6372634951"/>
     <use style="fill:#008000;stroke:#000000;stroke-linejoin:miter;stroke-width:0.5;" x="432.864" xlink:href="#m75a3b83b14" y="39.6372634951"/>
    </g>
   </g>
   <g id="line2d_4">
    <path clip-path="url(#p8ed5d005f1)" d="M 60.12 174.177524 
L 88.792615 174.177524 
L 117.465231 174.177524 
L 146.137846 174.177524 
L 174.810462 174.177524 
L 203.483077 174.177524 
L 232.155692 174.177524 
L 260.828308 174.177524 
L 289.500923 168.048127 
L 318.173538 111.351206 
L 346.846154 80.704222 
L 375.518769 39.637263 
L 404.191385 39.637263 
L 432.864 39.637263 
" style="fill:none;stroke:#bfbf00;stroke-linecap:square;"/>
    <defs>
     <path d="M -3 -0 
L 3 3 
L 3 -3 
z
" id="mbbe4a5b5c7" style="stroke:#000000;stroke-linejoin:miter;stroke-width:0.5;"/>
    </defs>
    <g clip-path="url(#p8ed5d005f1)">
     <use style="fill:#bfbf00;stroke:#000000;stroke-linejoin:miter;stroke-width:0.5;" x="60.12" xlink:href="#mbbe4a5b5c7" y="174.17752381"/>
     <use style="fill:#bfbf00;stroke:#000000;stroke-linejoin:miter;stroke-width:0.5;" x="88.7926153846" xlink:href="#mbbe4a5b5c7" y="174.17752381"/>
     <use style="fill:#bfbf00;stroke:#000000;stroke-linejoin:miter;stroke-width:0.5;" x="117.465230769" xlink:href="#mbbe4a5b5c7" y="174.17752381"/>
     <use style="fill:#bfbf00;stroke:#000000;stroke-linejoin:miter;stroke-width:0.5;" x="146.137846154" xlink:href="#mbbe4a5b5c7" y="174.17752381"/>
     <use style="fill:#bfbf00;stroke:#000000;stroke-linejoin:miter;stroke-width:0.5;" x="174.810461538" xlink:href="#mbbe4a5b5c7" y="174.17752381"/>
     <use style="fill:#bfbf00;stroke:#000000;stroke-linejoin:miter;stroke-width:0.5;" x="203.483076923" xlink:href="#mbbe4a5b5c7" y="174.17752381"/>
     <use style="fill:#bfbf00;stroke:#000000;stroke-linejoin:miter;stroke-width:0.5;" x="232.155692308" xlink:href="#mbbe4a5b5c7" y="174.17752381"/>
     <use style="fill:#bfbf00;stroke:#000000;stroke-linejoin:miter;stroke-width:0.5;" x="260.828307692" xlink:href="#mbbe4a5b5c7" y="174.17752381"/>
     <use style="fill:#bfbf00;stroke:#000000;stroke-linejoin:miter;stroke-width:0.5;" x="289.500923077" xlink:href="#mbbe4a5b5c7" y="168.048126981"/>
     <use style="fill:#bfbf00;stroke:#000000;stroke-linejoin:miter;stroke-width:0.5;" x="318.173538462" xlink:href="#mbbe4a5b5c7" y="111.351206352"/>
     <use style="fill:#bfbf00;stroke:#000000;stroke-linejoin:miter;stroke-width:0.5;" x="346.846153846" xlink:href="#mbbe4a5b5c7" y="80.7042222192"/>
     <use style="fill:#bfbf00;stroke:#000000;stroke-linejoin:miter;stroke-width:0.5;" x="375.518769231" xlink:href="#mbbe4a5b5c7" y="39.6372634951"/>
     <use style="fill:#bfbf00;stroke:#000000;stroke-linejoin:miter;stroke-width:0.5;" x="404.191384615" xlink:href="#mbbe4a5b5c7" y="39.6372634951"/>
     <use style="fill:#bfbf00;stroke:#000000;stroke-linejoin:miter;stroke-width:0.5;" x="432.864" xlink:href="#mbbe4a5b5c7" y="39.6372634951"/>
    </g>
   </g>
   <g id="line2d_5">
    <path clip-path="url(#p8ed5d005f1)" d="M 60.12 174.177524 
L 88.792615 174.177524 
L 117.465231 174.177524 
L 146.137846 174.177524 
L 174.810462 174.177524 
L 203.483077 174.177524 
L 232.155692 174.177524 
L 260.828308 174.177524 
L 289.500923 174.177524 
L 318.173538 174.177524 
L 346.846154 174.177524 
L 375.518769 174.177524 
L 404.191385 122.69059 
L 432.864 39.637263 
" style="fill:none;stroke:#000000;stroke-linecap:square;"/>
    <defs>
     <path d="M -0 3 
L 3 -3 
L -3 -3 
z
" id="mc85fcdd20c" style="stroke:#000000;stroke-linejoin:miter;stroke-width:0.5;"/>
    </defs>
    <g clip-path="url(#p8ed5d005f1)">
     <use style="stroke:#000000;stroke-linejoin:miter;stroke-width:0.5;" x="60.12" xlink:href="#mc85fcdd20c" y="174.17752381"/>
     <use style="stroke:#000000;stroke-linejoin:miter;stroke-width:0.5;" x="88.7926153846" xlink:href="#mc85fcdd20c" y="174.17752381"/>
     <use style="stroke:#000000;stroke-linejoin:miter;stroke-width:0.5;" x="117.465230769" xlink:href="#mc85fcdd20c" y="174.17752381"/>
     <use style="stroke:#000000;stroke-linejoin:miter;stroke-width:0.5;" x="146.137846154" xlink:href="#mc85fcdd20c" y="174.17752381"/>
     <use style="stroke:#000000;stroke-linejoin:miter;stroke-width:0.5;" x="174.810461538" xlink:href="#mc85fcdd20c" y="174.17752381"/>
     <use style="stroke:#000000;stroke-linejoin:miter;stroke-width:0.5;" x="203.483076923" xlink:href="#mc85fcdd20c" y="174.17752381"/>
     <use style="stroke:#000000;stroke-linejoin:miter;stroke-width:0.5;" x="232.155692308" xlink:href="#mc85fcdd20c" y="174.17752381"/>
     <use style="stroke:#000000;stroke-linejoin:miter;stroke-width:0.5;" x="260.828307692" xlink:href="#mc85fcdd20c" y="174.17752381"/>
     <use style="stroke:#000000;stroke-linejoin:miter;stroke-width:0.5;" x="289.500923077" xlink:href="#mc85fcdd20c" y="174.17752381"/>
     <use style="stroke:#000000;stroke-linejoin:miter;stroke-width:0.5;" x="318.173538462" xlink:href="#mc85fcdd20c" y="174.17752381"/>
     <use style="stroke:#000000;stroke-linejoin:miter;stroke-width:0.5;" x="346.846153846" xlink:href="#mc85fcdd20c" y="174.17752381"/>
     <use style="stroke:#000000;stroke-linejoin:miter;stroke-width:0.5;" x="375.518769231" xlink:href="#mc85fcdd20c" y="174.17752381"/>
     <use style="stroke:#000000;stroke-linejoin:miter;stroke-width:0.5;" x="404.191384615" xlink:href="#mc85fcdd20c" y="122.690590476"/>
     <use style="stroke:#000000;stroke-linejoin:miter;stroke-width:0.5;" x="432.864" xlink:href="#mc85fcdd20c" y="39.6372634951"/>
    </g>
   </g>
   <g id="patch_3">
    <path d="M 432.864 192.565714 
L 432.864 27.072 
" style="fill:none;stroke:#000000;stroke-linecap:square;stroke-linejoin:miter;"/>
   </g>
   <g id="patch_4">
    <path d="M 60.12 192.565714 
L 60.12 27.072 
" style="fill:none;stroke:#000000;stroke-linecap:square;stroke-linejoin:miter;"/>
   </g>
   <g id="patch_5">
    <path d="M 60.12 27.072 
L 432.864 27.072 
" style="fill:none;stroke:#000000;stroke-linecap:square;stroke-linejoin:miter;"/>
   </g>
   <g id="patch_6">
    <path d="M 60.12 192.565714 
L 432.864 192.565714 
" style="fill:none;stroke:#000000;stroke-linecap:square;stroke-linejoin:miter;"/>
   </g>
   <g id="matplotlib.axis_1">
    <g id="xtick_1">
     <g id="line2d_6">
      <path clip-path="url(#p8ed5d005f1)" d="M 60.12 192.565714 
L 60.12 27.072 
" style="fill:none;stroke:#000000;stroke-dasharray:1.000000,3.000000;stroke-dashoffset:0.0;stroke-width:0.5;"/>
     </g>
     <g id="line2d_7">
      <defs>
       <path d="M 0 0 
L 0 -4 
" id="ma80b1224f9" style="stroke:#000000;stroke-width:0.5;"/>
      </defs>
      <g>
       <use style="stroke:#000000;stroke-width:0.5;" x="60.12" xlink:href="#ma80b1224f9" y="192.565714286"/>
      </g>
     </g>
     <g id="line2d_8">
      <defs>
       <path d="M 0 0 
L 0 4 
" id="m03ad0e45c3" style="stroke:#000000;stroke-width:0.5;"/>
      </defs>
      <g>
       <use style="stroke:#000000;stroke-width:0.5;" x="60.12" xlink:href="#m03ad0e45c3" y="27.072"/>
      </g>
     </g>
     <g id="text_1">
      <!-- 0,9 -->
      <defs>
       <path d="M 31.78125 66.40625 
Q 24.171875 66.40625 20.328125 58.90625 
Q 16.5 51.421875 16.5 36.375 
Q 16.5 21.390625 20.328125 13.890625 
Q 24.171875 6.390625 31.78125 6.390625 
Q 39.453125 6.390625 43.28125 13.890625 
Q 47.125 21.390625 47.125 36.375 
Q 47.125 51.421875 43.28125 58.90625 
Q 39.453125 66.40625 31.78125 66.40625 
M 31.78125 74.21875 
Q 44.046875 74.21875 50.515625 64.515625 
Q 56.984375 54.828125 56.984375 36.375 
Q 56.984375 17.96875 50.515625 8.265625 
Q 44.046875 -1.421875 31.78125 -1.421875 
Q 19.53125 -1.421875 13.0625 8.265625 
Q 6.59375 17.96875 6.59375 36.375 
Q 6.59375 54.828125 13.0625 64.515625 
Q 19.53125 74.21875 31.78125 74.21875 
" id="BitstreamVeraSans-Roman-30"/>
       <path d="M 10.984375 1.515625 
L 10.984375 10.5 
Q 14.703125 8.734375 18.5 7.8125 
Q 22.3125 6.890625 25.984375 6.890625 
Q 35.75 6.890625 40.890625 13.453125 
Q 46.046875 20.015625 46.78125 33.40625 
Q 43.953125 29.203125 39.59375 26.953125 
Q 35.25 24.703125 29.984375 24.703125 
Q 19.046875 24.703125 12.671875 31.3125 
Q 6.296875 37.9375 6.296875 49.421875 
Q 6.296875 60.640625 12.9375 67.421875 
Q 19.578125 74.21875 30.609375 74.21875 
Q 43.265625 74.21875 49.921875 64.515625 
Q 56.59375 54.828125 56.59375 36.375 
Q 56.59375 19.140625 48.40625 8.859375 
Q 40.234375 -1.421875 26.421875 -1.421875 
Q 22.703125 -1.421875 18.890625 -0.6875 
Q 15.09375 0.046875 10.984375 1.515625 
M 30.609375 32.421875 
Q 37.25 32.421875 41.125 36.953125 
Q 45.015625 41.5 45.015625 49.421875 
Q 45.015625 57.28125 41.125 61.84375 
Q 37.25 66.40625 30.609375 66.40625 
Q 23.96875 66.40625 20.09375 61.84375 
Q 16.21875 57.28125 16.21875 49.421875 
Q 16.21875 41.5 20.09375 36.953125 
Q 23.96875 32.421875 30.609375 32.421875 
" id="BitstreamVeraSans-Roman-39"/>
       <path d="M 11.71875 12.40625 
L 22.015625 12.40625 
L 22.015625 4 
L 14.015625 -11.625 
L 7.71875 -11.625 
L 11.71875 4 
z
" id="BitstreamVeraSans-Roman-2c"/>
      </defs>
      <g transform="translate(55.7142828115 216.50745134)rotate(-45.0)scale(0.12 -0.12)">
       <use xlink:href="#BitstreamVeraSans-Roman-30"/>
       <use x="63.623046875" xlink:href="#BitstreamVeraSans-Roman-2c"/>
       <use x="95.41015625" xlink:href="#BitstreamVeraSans-Roman-39"/>
      </g>
     </g>
    </g>
    <g id="xtick_2">
     <g id="line2d_9">
      <path clip-path="url(#p8ed5d005f1)" d="M 88.792615 192.565714 
L 88.792615 27.072 
" style="fill:none;stroke:#000000;stroke-dasharray:1.000000,3.000000;stroke-dashoffset:0.0;stroke-width:0.5;"/>
     </g>
     <g id="line2d_10">
      <g>
       <use style="stroke:#000000;stroke-width:0.5;" x="88.7926153846" xlink:href="#ma80b1224f9" y="192.565714286"/>
      </g>
     </g>
     <g id="line2d_11">
      <g>
       <use style="stroke:#000000;stroke-width:0.5;" x="88.7926153846" xlink:href="#m03ad0e45c3" y="27.072"/>
      </g>
     </g>
     <g id="text_2">
      <!-- 0,95 -->
      <defs>
       <path d="M 10.796875 72.90625 
L 49.515625 72.90625 
L 49.515625 64.59375 
L 19.828125 64.59375 
L 19.828125 46.734375 
Q 21.96875 47.46875 24.109375 47.828125 
Q 26.265625 48.1875 28.421875 48.1875 
Q 40.625 48.1875 47.75 41.5 
Q 54.890625 34.8125 54.890625 23.390625 
Q 54.890625 11.625 47.5625 5.09375 
Q 40.234375 -1.421875 26.90625 -1.421875 
Q 22.3125 -1.421875 17.546875 -0.640625 
Q 12.796875 0.140625 7.71875 1.703125 
L 7.71875 11.625 
Q 12.109375 9.234375 16.796875 8.0625 
Q 21.484375 6.890625 26.703125 6.890625 
Q 35.15625 6.890625 40.078125 11.328125 
Q 45.015625 15.765625 45.015625 23.390625 
Q 45.015625 31 40.078125 35.4375 
Q 35.15625 39.890625 26.703125 39.890625 
Q 22.75 39.890625 18.8125 39.015625 
Q 14.890625 38.140625 10.796875 36.28125 
z
" id="BitstreamVeraSans-Roman-35"/>
      </defs>
      <g transform="translate(81.6875180589 221.906211615)rotate(-45.0)scale(0.12 -0.12)">
       <use xlink:href="#BitstreamVeraSans-Roman-30"/>
       <use x="63.623046875" xlink:href="#BitstreamVeraSans-Roman-2c"/>
       <use x="95.41015625" xlink:href="#BitstreamVeraSans-Roman-39"/>
       <use x="159.033203125" xlink:href="#BitstreamVeraSans-Roman-35"/>
      </g>
     </g>
    </g>
    <g id="xtick_3">
     <g id="line2d_12">
      <path clip-path="url(#p8ed5d005f1)" d="M 117.465231 192.565714 
L 117.465231 27.072 
" style="fill:none;stroke:#000000;stroke-dasharray:1.000000,3.000000;stroke-dashoffset:0.0;stroke-width:0.5;"/>
     </g>
     <g id="line2d_13">
      <g>
       <use style="stroke:#000000;stroke-width:0.5;" x="117.465230769" xlink:href="#ma80b1224f9" y="192.565714286"/>
      </g>
     </g>
     <g id="line2d_14">
      <g>
       <use style="stroke:#000000;stroke-width:0.5;" x="117.465230769" xlink:href="#m03ad0e45c3" y="27.072"/>
      </g>
     </g>
     <g id="text_3">
      <!-- 0,99 -->
      <g transform="translate(110.360133444 221.906211615)rotate(-45.0)scale(0.12 -0.12)">
       <use xlink:href="#BitstreamVeraSans-Roman-30"/>
       <use x="63.623046875" xlink:href="#BitstreamVeraSans-Roman-2c"/>
       <use x="95.41015625" xlink:href="#BitstreamVeraSans-Roman-39"/>
       <use x="159.033203125" xlink:href="#BitstreamVeraSans-Roman-39"/>
      </g>
     </g>
    </g>
    <g id="xtick_4">
     <g id="line2d_15">
      <path clip-path="url(#p8ed5d005f1)" d="M 146.137846 192.565714 
L 146.137846 27.072 
" style="fill:none;stroke:#000000;stroke-dasharray:1.000000,3.000000;stroke-dashoffset:0.0;stroke-width:0.5;"/>
     </g>
     <g id="line2d_16">
      <g>
       <use style="stroke:#000000;stroke-width:0.5;" x="146.137846154" xlink:href="#ma80b1224f9" y="192.565714286"/>
      </g>
     </g>
     <g id="line2d_17">
      <g>
       <use style="stroke:#000000;stroke-width:0.5;" x="146.137846154" xlink:href="#m03ad0e45c3" y="27.072"/>
      </g>
     </g>
     <g id="text_4">
      <!-- 0,995 -->
      <g transform="translate(136.333368691 227.304971889)rotate(-45.0)scale(0.12 -0.12)">
       <use xlink:href="#BitstreamVeraSans-Roman-30"/>
       <use x="63.623046875" xlink:href="#BitstreamVeraSans-Roman-2c"/>
       <use x="95.41015625" xlink:href="#BitstreamVeraSans-Roman-39"/>
       <use x="159.033203125" xlink:href="#BitstreamVeraSans-Roman-39"/>
       <use x="222.65625" xlink:href="#BitstreamVeraSans-Roman-35"/>
      </g>
     </g>
    </g>
    <g id="xtick_5">
     <g id="line2d_18">
      <path clip-path="url(#p8ed5d005f1)" d="M 174.810462 192.565714 
L 174.810462 27.072 
" style="fill:none;stroke:#000000;stroke-dasharray:1.000000,3.000000;stroke-dashoffset:0.0;stroke-width:0.5;"/>
     </g>
     <g id="line2d_19">
      <g>
       <use style="stroke:#000000;stroke-width:0.5;" x="174.810461538" xlink:href="#ma80b1224f9" y="192.565714286"/>
      </g>
     </g>
     <g id="line2d_20">
      <g>
       <use style="stroke:#000000;stroke-width:0.5;" x="174.810461538" xlink:href="#m03ad0e45c3" y="27.072"/>
      </g>
     </g>
     <g id="text_5">
      <!-- 0,9975 -->
      <defs>
       <path d="M 8.203125 72.90625 
L 55.078125 72.90625 
L 55.078125 68.703125 
L 28.609375 0 
L 18.3125 0 
L 43.21875 64.59375 
L 8.203125 64.59375 
z
" id="BitstreamVeraSans-Roman-37"/>
      </defs>
      <g transform="translate(162.306603938 232.703732163)rotate(-45.0)scale(0.12 -0.12)">
       <use xlink:href="#BitstreamVeraSans-Roman-30"/>
       <use x="63.623046875" xlink:href="#BitstreamVeraSans-Roman-2c"/>
       <use x="95.41015625" xlink:href="#BitstreamVeraSans-Roman-39"/>
       <use x="159.033203125" xlink:href="#BitstreamVeraSans-Roman-39"/>
       <use x="222.65625" xlink:href="#BitstreamVeraSans-Roman-37"/>
       <use x="286.279296875" xlink:href="#BitstreamVeraSans-Roman-35"/>
      </g>
     </g>
    </g>
    <g id="xtick_6">
     <g id="line2d_21">
      <path clip-path="url(#p8ed5d005f1)" d="M 203.483077 192.565714 
L 203.483077 27.072 
" style="fill:none;stroke:#000000;stroke-dasharray:1.000000,3.000000;stroke-dashoffset:0.0;stroke-width:0.5;"/>
     </g>
     <g id="line2d_22">
      <g>
       <use style="stroke:#000000;stroke-width:0.5;" x="203.483076923" xlink:href="#ma80b1224f9" y="192.565714286"/>
      </g>
     </g>
     <g id="line2d_23">
      <g>
       <use style="stroke:#000000;stroke-width:0.5;" x="203.483076923" xlink:href="#m03ad0e45c3" y="27.072"/>
      </g>
     </g>
     <g id="text_6">
      <!-- 0,999 -->
      <g transform="translate(193.67859946 227.304971889)rotate(-45.0)scale(0.12 -0.12)">
       <use xlink:href="#BitstreamVeraSans-Roman-30"/>
       <use x="63.623046875" xlink:href="#BitstreamVeraSans-Roman-2c"/>
       <use x="95.41015625" xlink:href="#BitstreamVeraSans-Roman-39"/>
       <use x="159.033203125" xlink:href="#BitstreamVeraSans-Roman-39"/>
       <use x="222.65625" xlink:href="#BitstreamVeraSans-Roman-39"/>
      </g>
     </g>
    </g>
    <g id="xtick_7">
     <g id="line2d_24">
      <path clip-path="url(#p8ed5d005f1)" d="M 232.155692 192.565714 
L 232.155692 27.072 
" style="fill:none;stroke:#000000;stroke-dasharray:1.000000,3.000000;stroke-dashoffset:0.0;stroke-width:0.5;"/>
     </g>
     <g id="line2d_25">
      <g>
       <use style="stroke:#000000;stroke-width:0.5;" x="232.155692308" xlink:href="#ma80b1224f9" y="192.565714286"/>
      </g>
     </g>
     <g id="line2d_26">
      <g>
       <use style="stroke:#000000;stroke-width:0.5;" x="232.155692308" xlink:href="#m03ad0e45c3" y="27.072"/>
      </g>
     </g>
     <g id="text_7">
      <!-- 0,99925 -->
      <defs>
       <path d="M 19.1875 8.296875 
L 53.609375 8.296875 
L 53.609375 0 
L 7.328125 0 
L 7.328125 8.296875 
Q 12.9375 14.109375 22.625 23.890625 
Q 32.328125 33.6875 34.8125 36.53125 
Q 39.546875 41.84375 41.421875 45.53125 
Q 43.3125 49.21875 43.3125 52.78125 
Q 43.3125 58.59375 39.234375 62.25 
Q 35.15625 65.921875 28.609375 65.921875 
Q 23.96875 65.921875 18.8125 64.3125 
Q 13.671875 62.703125 7.8125 59.421875 
L 7.8125 69.390625 
Q 13.765625 71.78125 18.9375 73 
Q 24.125 74.21875 28.421875 74.21875 
Q 39.75 74.21875 46.484375 68.546875 
Q 53.21875 62.890625 53.21875 53.421875 
Q 53.21875 48.921875 51.53125 44.890625 
Q 49.859375 40.875 45.40625 35.40625 
Q 44.1875 33.984375 37.640625 27.21875 
Q 31.109375 20.453125 19.1875 8.296875 
" id="BitstreamVeraSans-Roman-32"/>
      </defs>
      <g transform="translate(216.95245457 238.102492438)rotate(-45.0)scale(0.12 -0.12)">
       <use xlink:href="#BitstreamVeraSans-Roman-30"/>
       <use x="63.623046875" xlink:href="#BitstreamVeraSans-Roman-2c"/>
       <use x="95.41015625" xlink:href="#BitstreamVeraSans-Roman-39"/>
       <use x="159.033203125" xlink:href="#BitstreamVeraSans-Roman-39"/>
       <use x="222.65625" xlink:href="#BitstreamVeraSans-Roman-39"/>
       <use x="286.279296875" xlink:href="#BitstreamVeraSans-Roman-32"/>
       <use x="349.90234375" xlink:href="#BitstreamVeraSans-Roman-35"/>
      </g>
     </g>
    </g>
    <g id="xtick_8">
     <g id="line2d_27">
      <path clip-path="url(#p8ed5d005f1)" d="M 260.828308 192.565714 
L 260.828308 27.072 
" style="fill:none;stroke:#000000;stroke-dasharray:1.000000,3.000000;stroke-dashoffset:0.0;stroke-width:0.5;"/>
     </g>
     <g id="line2d_28">
      <g>
       <use style="stroke:#000000;stroke-width:0.5;" x="260.828307692" xlink:href="#ma80b1224f9" y="192.565714286"/>
      </g>
     </g>
     <g id="line2d_29">
      <g>
       <use style="stroke:#000000;stroke-width:0.5;" x="260.828307692" xlink:href="#m03ad0e45c3" y="27.072"/>
      </g>
     </g>
     <g id="text_8">
      <!-- 0,9995 -->
      <g transform="translate(248.324450092 232.703732163)rotate(-45.0)scale(0.12 -0.12)">
       <use xlink:href="#BitstreamVeraSans-Roman-30"/>
       <use x="63.623046875" xlink:href="#BitstreamVeraSans-Roman-2c"/>
       <use x="95.41015625" xlink:href="#BitstreamVeraSans-Roman-39"/>
       <use x="159.033203125" xlink:href="#BitstreamVeraSans-Roman-39"/>
       <use x="222.65625" xlink:href="#BitstreamVeraSans-Roman-39"/>
       <use x="286.279296875" xlink:href="#BitstreamVeraSans-Roman-35"/>
      </g>
     </g>
    </g>
    <g id="xtick_9">
     <g id="line2d_30">
      <path clip-path="url(#p8ed5d005f1)" d="M 289.500923 192.565714 
L 289.500923 27.072 
" style="fill:none;stroke:#000000;stroke-dasharray:1.000000,3.000000;stroke-dashoffset:0.0;stroke-width:0.5;"/>
     </g>
     <g id="line2d_31">
      <g>
       <use style="stroke:#000000;stroke-width:0.5;" x="289.500923077" xlink:href="#ma80b1224f9" y="192.565714286"/>
      </g>
     </g>
     <g id="line2d_32">
      <g>
       <use style="stroke:#000000;stroke-width:0.5;" x="289.500923077" xlink:href="#m03ad0e45c3" y="27.072"/>
      </g>
     </g>
     <g id="text_9">
      <!-- 0,99975 -->
      <g transform="translate(274.29768534 238.102492438)rotate(-45.0)scale(0.12 -0.12)">
       <use xlink:href="#BitstreamVeraSans-Roman-30"/>
       <use x="63.623046875" xlink:href="#BitstreamVeraSans-Roman-2c"/>
       <use x="95.41015625" xlink:href="#BitstreamVeraSans-Roman-39"/>
       <use x="159.033203125" xlink:href="#BitstreamVeraSans-Roman-39"/>
       <use x="222.65625" xlink:href="#BitstreamVeraSans-Roman-39"/>
       <use x="286.279296875" xlink:href="#BitstreamVeraSans-Roman-37"/>
       <use x="349.90234375" xlink:href="#BitstreamVeraSans-Roman-35"/>
      </g>
     </g>
    </g>
    <g id="xtick_10">
     <g id="line2d_33">
      <path clip-path="url(#p8ed5d005f1)" d="M 318.173538 192.565714 
L 318.173538 27.072 
" style="fill:none;stroke:#000000;stroke-dasharray:1.000000,3.000000;stroke-dashoffset:0.0;stroke-width:0.5;"/>
     </g>
     <g id="line2d_34">
      <g>
       <use style="stroke:#000000;stroke-width:0.5;" x="318.173538462" xlink:href="#ma80b1224f9" y="192.565714286"/>
      </g>
     </g>
     <g id="line2d_35">
      <g>
       <use style="stroke:#000000;stroke-width:0.5;" x="318.173538462" xlink:href="#m03ad0e45c3" y="27.072"/>
      </g>
     </g>
     <g id="text_10">
      <!-- 0,9999 -->
      <g transform="translate(305.669680861 232.703732163)rotate(-45.0)scale(0.12 -0.12)">
       <use xlink:href="#BitstreamVeraSans-Roman-30"/>
       <use x="63.623046875" xlink:href="#BitstreamVeraSans-Roman-2c"/>
       <use x="95.41015625" xlink:href="#BitstreamVeraSans-Roman-39"/>
       <use x="159.033203125" xlink:href="#BitstreamVeraSans-Roman-39"/>
       <use x="222.65625" xlink:href="#BitstreamVeraSans-Roman-39"/>
       <use x="286.279296875" xlink:href="#BitstreamVeraSans-Roman-39"/>
      </g>
     </g>
    </g>
    <g id="xtick_11">
     <g id="line2d_36">
      <path clip-path="url(#p8ed5d005f1)" d="M 346.846154 192.565714 
L 346.846154 27.072 
" style="fill:none;stroke:#000000;stroke-dasharray:1.000000,3.000000;stroke-dashoffset:0.0;stroke-width:0.5;"/>
     </g>
     <g id="line2d_37">
      <g>
       <use style="stroke:#000000;stroke-width:0.5;" x="346.846153846" xlink:href="#ma80b1224f9" y="192.565714286"/>
      </g>
     </g>
     <g id="line2d_38">
      <g>
       <use style="stroke:#000000;stroke-width:0.5;" x="346.846153846" xlink:href="#m03ad0e45c3" y="27.072"/>
      </g>
     </g>
     <g id="text_11">
      <!-- 0,999925 -->
      <g transform="translate(328.943535972 243.501252712)rotate(-45.0)scale(0.12 -0.12)">
       <use xlink:href="#BitstreamVeraSans-Roman-30"/>
       <use x="63.623046875" xlink:href="#BitstreamVeraSans-Roman-2c"/>
       <use x="95.41015625" xlink:href="#BitstreamVeraSans-Roman-39"/>
       <use x="159.033203125" xlink:href="#BitstreamVeraSans-Roman-39"/>
       <use x="222.65625" xlink:href="#BitstreamVeraSans-Roman-39"/>
       <use x="286.279296875" xlink:href="#BitstreamVeraSans-Roman-39"/>
       <use x="349.90234375" xlink:href="#BitstreamVeraSans-Roman-32"/>
       <use x="413.525390625" xlink:href="#BitstreamVeraSans-Roman-35"/>
      </g>
     </g>
    </g>
    <g id="xtick_12">
     <g id="line2d_39">
      <path clip-path="url(#p8ed5d005f1)" d="M 375.518769 192.565714 
L 375.518769 27.072 
" style="fill:none;stroke:#000000;stroke-dasharray:1.000000,3.000000;stroke-dashoffset:0.0;stroke-width:0.5;"/>
     </g>
     <g id="line2d_40">
      <g>
       <use style="stroke:#000000;stroke-width:0.5;" x="375.518769231" xlink:href="#ma80b1224f9" y="192.565714286"/>
      </g>
     </g>
     <g id="line2d_41">
      <g>
       <use style="stroke:#000000;stroke-width:0.5;" x="375.518769231" xlink:href="#m03ad0e45c3" y="27.072"/>
      </g>
     </g>
     <g id="text_12">
      <!-- 0,99995 -->
      <g transform="translate(360.315531494 238.102492438)rotate(-45.0)scale(0.12 -0.12)">
       <use xlink:href="#BitstreamVeraSans-Roman-30"/>
       <use x="63.623046875" xlink:href="#BitstreamVeraSans-Roman-2c"/>
       <use x="95.41015625" xlink:href="#BitstreamVeraSans-Roman-39"/>
       <use x="159.033203125" xlink:href="#BitstreamVeraSans-Roman-39"/>
       <use x="222.65625" xlink:href="#BitstreamVeraSans-Roman-39"/>
       <use x="286.279296875" xlink:href="#BitstreamVeraSans-Roman-39"/>
       <use x="349.90234375" xlink:href="#BitstreamVeraSans-Roman-35"/>
      </g>
     </g>
    </g>
    <g id="xtick_13">
     <g id="line2d_42">
      <path clip-path="url(#p8ed5d005f1)" d="M 404.191385 192.565714 
L 404.191385 27.072 
" style="fill:none;stroke:#000000;stroke-dasharray:1.000000,3.000000;stroke-dashoffset:0.0;stroke-width:0.5;"/>
     </g>
     <g id="line2d_43">
      <g>
       <use style="stroke:#000000;stroke-width:0.5;" x="404.191384615" xlink:href="#ma80b1224f9" y="192.565714286"/>
      </g>
     </g>
     <g id="line2d_44">
      <g>
       <use style="stroke:#000000;stroke-width:0.5;" x="404.191384615" xlink:href="#m03ad0e45c3" y="27.072"/>
      </g>
     </g>
     <g id="text_13">
      <!-- 0,999975 -->
      <g transform="translate(386.288766741 243.501252712)rotate(-45.0)scale(0.12 -0.12)">
       <use xlink:href="#BitstreamVeraSans-Roman-30"/>
       <use x="63.623046875" xlink:href="#BitstreamVeraSans-Roman-2c"/>
       <use x="95.41015625" xlink:href="#BitstreamVeraSans-Roman-39"/>
       <use x="159.033203125" xlink:href="#BitstreamVeraSans-Roman-39"/>
       <use x="222.65625" xlink:href="#BitstreamVeraSans-Roman-39"/>
       <use x="286.279296875" xlink:href="#BitstreamVeraSans-Roman-39"/>
       <use x="349.90234375" xlink:href="#BitstreamVeraSans-Roman-37"/>
       <use x="413.525390625" xlink:href="#BitstreamVeraSans-Roman-35"/>
      </g>
     </g>
    </g>
    <g id="xtick_14">
     <g id="line2d_45">
      <path clip-path="url(#p8ed5d005f1)" d="M 432.864 192.565714 
L 432.864 27.072 
" style="fill:none;stroke:#000000;stroke-dasharray:1.000000,3.000000;stroke-dashoffset:0.0;stroke-width:0.5;"/>
     </g>
     <g id="line2d_46">
      <g>
       <use style="stroke:#000000;stroke-width:0.5;" x="432.864" xlink:href="#ma80b1224f9" y="192.565714286"/>
      </g>
     </g>
     <g id="line2d_47">
      <g>
       <use style="stroke:#000000;stroke-width:0.5;" x="432.864" xlink:href="#m03ad0e45c3" y="27.072"/>
      </g>
     </g>
     <g id="text_14">
      <!-- 0,99999 -->
      <g transform="translate(412.909932771 238.102492438)rotate(-45.0)scale(0.12 -0.12)">
       <use xlink:href="#BitstreamVeraSans-Roman-30"/>
       <use x="63.623046875" xlink:href="#BitstreamVeraSans-Roman-2c"/>
       <use x="95.41015625" xlink:href="#BitstreamVeraSans-Roman-39"/>
       <use x="159.033203125" xlink:href="#BitstreamVeraSans-Roman-39"/>
       <use x="222.65625" xlink:href="#BitstreamVeraSans-Roman-39"/>
       <use x="286.279296875" xlink:href="#BitstreamVeraSans-Roman-39"/>
       <use x="349.90234375" xlink:href="#BitstreamVeraSans-Roman-39"/>
      </g>
      <!--  -->
      <g transform="translate(439.956236821 230.059506355)rotate(-45.0)scale(0.12 -0.12)"/>
     </g>
    </g>
    <g id="text_15">
     <!-- SLA Availability -->
     <defs>
      <path d="M 32.171875 -5.078125 
Q 28.375 -14.84375 24.75 -17.8125 
Q 21.140625 -20.796875 15.09375 -20.796875 
L 7.90625 -20.796875 
L 7.90625 -13.28125 
L 13.1875 -13.28125 
Q 16.890625 -13.28125 18.9375 -11.515625 
Q 21 -9.765625 23.484375 -3.21875 
L 25.09375 0.875 
L 2.984375 54.6875 
L 12.5 54.6875 
L 29.59375 11.921875 
L 46.6875 54.6875 
L 56.203125 54.6875 
z
" id="BitstreamVeraSans-Roman-79"/>
      <path d="M 48.6875 27.296875 
Q 48.6875 37.203125 44.609375 42.84375 
Q 40.53125 48.484375 33.40625 48.484375 
Q 26.265625 48.484375 22.1875 42.84375 
Q 18.109375 37.203125 18.109375 27.296875 
Q 18.109375 17.390625 22.1875 11.75 
Q 26.265625 6.109375 33.40625 6.109375 
Q 40.53125 6.109375 44.609375 11.75 
Q 48.6875 17.390625 48.6875 27.296875 
M 18.109375 46.390625 
Q 20.953125 51.265625 25.265625 53.625 
Q 29.59375 56 35.59375 56 
Q 45.5625 56 51.78125 48.09375 
Q 58.015625 40.1875 58.015625 27.296875 
Q 58.015625 14.40625 51.78125 6.484375 
Q 45.5625 -1.421875 35.59375 -1.421875 
Q 29.59375 -1.421875 25.265625 0.953125 
Q 20.953125 3.328125 18.109375 8.203125 
L 18.109375 0 
L 9.078125 0 
L 9.078125 75.984375 
L 18.109375 75.984375 
z
" id="BitstreamVeraSans-Roman-62"/>
      <path id="BitstreamVeraSans-Roman-20"/>
      <path d="M 9.421875 75.984375 
L 18.40625 75.984375 
L 18.40625 0 
L 9.421875 0 
z
" id="BitstreamVeraSans-Roman-6c"/>
      <path d="M 34.1875 63.1875 
L 20.796875 26.90625 
L 47.609375 26.90625 
z
M 28.609375 72.90625 
L 39.796875 72.90625 
L 67.578125 0 
L 57.328125 0 
L 50.6875 18.703125 
L 17.828125 18.703125 
L 11.1875 0 
L 0.78125 0 
z
" id="BitstreamVeraSans-Roman-41"/>
      <path d="M 9.421875 54.6875 
L 18.40625 54.6875 
L 18.40625 0 
L 9.421875 0 
z
M 9.421875 75.984375 
L 18.40625 75.984375 
L 18.40625 64.59375 
L 9.421875 64.59375 
z
" id="BitstreamVeraSans-Roman-69"/>
      <path d="M 2.984375 54.6875 
L 12.5 54.6875 
L 29.59375 8.796875 
L 46.6875 54.6875 
L 56.203125 54.6875 
L 35.6875 0 
L 23.484375 0 
z
" id="BitstreamVeraSans-Roman-76"/>
      <path d="M 53.515625 70.515625 
L 53.515625 60.890625 
Q 47.90625 63.578125 42.921875 64.890625 
Q 37.9375 66.21875 33.296875 66.21875 
Q 25.25 66.21875 20.875 63.09375 
Q 16.5 59.96875 16.5 54.203125 
Q 16.5 49.359375 19.40625 46.890625 
Q 22.3125 44.4375 30.421875 42.921875 
L 36.375 41.703125 
Q 47.40625 39.59375 52.65625 34.296875 
Q 57.90625 29 57.90625 20.125 
Q 57.90625 9.515625 50.796875 4.046875 
Q 43.703125 -1.421875 29.984375 -1.421875 
Q 24.8125 -1.421875 18.96875 -0.25 
Q 13.140625 0.921875 6.890625 3.21875 
L 6.890625 13.375 
Q 12.890625 10.015625 18.65625 8.296875 
Q 24.421875 6.59375 29.984375 6.59375 
Q 38.421875 6.59375 43.015625 9.90625 
Q 47.609375 13.234375 47.609375 19.390625 
Q 47.609375 24.75 44.3125 27.78125 
Q 41.015625 30.8125 33.5 32.328125 
L 27.484375 33.5 
Q 16.453125 35.6875 11.515625 40.375 
Q 6.59375 45.0625 6.59375 53.421875 
Q 6.59375 63.09375 13.40625 68.65625 
Q 20.21875 74.21875 32.171875 74.21875 
Q 37.3125 74.21875 42.625 73.28125 
Q 47.953125 72.359375 53.515625 70.515625 
" id="BitstreamVeraSans-Roman-53"/>
      <path d="M 18.3125 70.21875 
L 18.3125 54.6875 
L 36.8125 54.6875 
L 36.8125 47.703125 
L 18.3125 47.703125 
L 18.3125 18.015625 
Q 18.3125 11.328125 20.140625 9.421875 
Q 21.96875 7.515625 27.59375 7.515625 
L 36.8125 7.515625 
L 36.8125 0 
L 27.59375 0 
Q 17.1875 0 13.234375 3.875 
Q 9.28125 7.765625 9.28125 18.015625 
L 9.28125 47.703125 
L 2.6875 47.703125 
L 2.6875 54.6875 
L 9.28125 54.6875 
L 9.28125 70.21875 
z
" id="BitstreamVeraSans-Roman-74"/>
      <path d="M 9.8125 72.90625 
L 19.671875 72.90625 
L 19.671875 8.296875 
L 55.171875 8.296875 
L 55.171875 0 
L 9.8125 0 
z
" id="BitstreamVeraSans-Roman-4c"/>
      <path d="M 34.28125 27.484375 
Q 23.390625 27.484375 19.1875 25 
Q 14.984375 22.515625 14.984375 16.5 
Q 14.984375 11.71875 18.140625 8.90625 
Q 21.296875 6.109375 26.703125 6.109375 
Q 34.1875 6.109375 38.703125 11.40625 
Q 43.21875 16.703125 43.21875 25.484375 
L 43.21875 27.484375 
z
M 52.203125 31.203125 
L 52.203125 0 
L 43.21875 0 
L 43.21875 8.296875 
Q 40.140625 3.328125 35.546875 0.953125 
Q 30.953125 -1.421875 24.3125 -1.421875 
Q 15.921875 -1.421875 10.953125 3.296875 
Q 6 8.015625 6 15.921875 
Q 6 25.140625 12.171875 29.828125 
Q 18.359375 34.515625 30.609375 34.515625 
L 43.21875 34.515625 
L 43.21875 35.40625 
Q 43.21875 41.609375 39.140625 45 
Q 35.0625 48.390625 27.6875 48.390625 
Q 23 48.390625 18.546875 47.265625 
Q 14.109375 46.140625 10.015625 43.890625 
L 10.015625 52.203125 
Q 14.9375 54.109375 19.578125 55.046875 
Q 24.21875 56 28.609375 56 
Q 40.484375 56 46.34375 49.84375 
Q 52.203125 43.703125 52.203125 31.203125 
" id="BitstreamVeraSans-Roman-61"/>
     </defs>
     <g transform="translate(200.275125 263.486949782)scale(0.12 -0.12)">
      <use xlink:href="#BitstreamVeraSans-Roman-53"/>
      <use x="63.4765625" xlink:href="#BitstreamVeraSans-Roman-4c"/>
      <use x="119.220703125" xlink:href="#BitstreamVeraSans-Roman-41"/>
      <use x="187.62890625" xlink:href="#BitstreamVeraSans-Roman-20"/>
      <use x="219.416015625" xlink:href="#BitstreamVeraSans-Roman-41"/>
      <use x="287.74609375" xlink:href="#BitstreamVeraSans-Roman-76"/>
      <use x="346.92578125" xlink:href="#BitstreamVeraSans-Roman-61"/>
      <use x="408.205078125" xlink:href="#BitstreamVeraSans-Roman-69"/>
      <use x="435.98828125" xlink:href="#BitstreamVeraSans-Roman-6c"/>
      <use x="463.771484375" xlink:href="#BitstreamVeraSans-Roman-61"/>
      <use x="525.05078125" xlink:href="#BitstreamVeraSans-Roman-62"/>
      <use x="588.52734375" xlink:href="#BitstreamVeraSans-Roman-69"/>
      <use x="616.310546875" xlink:href="#BitstreamVeraSans-Roman-6c"/>
      <use x="644.09375" xlink:href="#BitstreamVeraSans-Roman-69"/>
      <use x="671.876953125" xlink:href="#BitstreamVeraSans-Roman-74"/>
      <use x="711.0859375" xlink:href="#BitstreamVeraSans-Roman-79"/>
     </g>
    </g>
   </g>
   <g id="matplotlib.axis_2">
    <g id="ytick_1">
     <g id="line2d_48">
      <path clip-path="url(#p8ed5d005f1)" d="M 60.12 192.565714 
L 432.864 192.565714 
" style="fill:none;stroke:#000000;stroke-dasharray:1.000000,3.000000;stroke-dashoffset:0.0;stroke-width:0.5;"/>
     </g>
     <g id="line2d_49">
      <defs>
       <path d="M 0 0 
L 4 0 
" id="madf4884d49" style="stroke:#000000;stroke-width:0.5;"/>
      </defs>
      <g>
       <use style="stroke:#000000;stroke-width:0.5;" x="60.12" xlink:href="#madf4884d49" y="192.565714286"/>
      </g>
     </g>
     <g id="line2d_50">
      <defs>
       <path d="M 0 0 
L -4 0 
" id="m93b4ff3baf" style="stroke:#000000;stroke-width:0.5;"/>
      </defs>
      <g>
       <use style="stroke:#000000;stroke-width:0.5;" x="432.864" xlink:href="#m93b4ff3baf" y="192.565714286"/>
      </g>
     </g>
     <g id="text_16">
      <!-- 0.8 -->
      <defs>
       <path d="M 31.78125 34.625 
Q 24.75 34.625 20.71875 30.859375 
Q 16.703125 27.09375 16.703125 20.515625 
Q 16.703125 13.921875 20.71875 10.15625 
Q 24.75 6.390625 31.78125 6.390625 
Q 38.8125 6.390625 42.859375 10.171875 
Q 46.921875 13.96875 46.921875 20.515625 
Q 46.921875 27.09375 42.890625 30.859375 
Q 38.875 34.625 31.78125 34.625 
M 21.921875 38.8125 
Q 15.578125 40.375 12.03125 44.71875 
Q 8.5 49.078125 8.5 55.328125 
Q 8.5 64.0625 14.71875 69.140625 
Q 20.953125 74.21875 31.78125 74.21875 
Q 42.671875 74.21875 48.875 69.140625 
Q 55.078125 64.0625 55.078125 55.328125 
Q 55.078125 49.078125 51.53125 44.71875 
Q 48 40.375 41.703125 38.8125 
Q 48.828125 37.15625 52.796875 32.3125 
Q 56.78125 27.484375 56.78125 20.515625 
Q 56.78125 9.90625 50.3125 4.234375 
Q 43.84375 -1.421875 31.78125 -1.421875 
Q 19.734375 -1.421875 13.25 4.234375 
Q 6.78125 9.90625 6.78125 20.515625 
Q 6.78125 27.484375 10.78125 32.3125 
Q 14.796875 37.15625 21.921875 38.8125 
M 18.3125 54.390625 
Q 18.3125 48.734375 21.84375 45.5625 
Q 25.390625 42.390625 31.78125 42.390625 
Q 38.140625 42.390625 41.71875 45.5625 
Q 45.3125 48.734375 45.3125 54.390625 
Q 45.3125 60.0625 41.71875 63.234375 
Q 38.140625 66.40625 31.78125 66.40625 
Q 25.390625 66.40625 21.84375 63.234375 
Q 18.3125 60.0625 18.3125 54.390625 
" id="BitstreamVeraSans-Roman-38"/>
       <path d="M 10.6875 12.40625 
L 21 12.40625 
L 21 0 
L 10.6875 0 
z
" id="BitstreamVeraSans-Roman-2e"/>
      </defs>
      <g transform="translate(37.03625 195.876964286)scale(0.12 -0.12)">
       <use xlink:href="#BitstreamVeraSans-Roman-30"/>
       <use x="63.623046875" xlink:href="#BitstreamVeraSans-Roman-2e"/>
       <use x="95.41015625" xlink:href="#BitstreamVeraSans-Roman-38"/>
      </g>
     </g>
    </g>
    <g id="ytick_2">
     <g id="line2d_51">
      <path clip-path="url(#p8ed5d005f1)" d="M 60.12 174.177524 
L 432.864 174.177524 
" style="fill:none;stroke:#000000;stroke-dasharray:1.000000,3.000000;stroke-dashoffset:0.0;stroke-width:0.5;"/>
     </g>
     <g id="line2d_52">
      <g>
       <use style="stroke:#000000;stroke-width:0.5;" x="60.12" xlink:href="#madf4884d49" y="174.17752381"/>
      </g>
     </g>
     <g id="line2d_53">
      <g>
       <use style="stroke:#000000;stroke-width:0.5;" x="432.864" xlink:href="#m93b4ff3baf" y="174.17752381"/>
      </g>
     </g>
     <g id="text_17">
      <!-- 1.0 -->
      <defs>
       <path d="M 12.40625 8.296875 
L 28.515625 8.296875 
L 28.515625 63.921875 
L 10.984375 60.40625 
L 10.984375 69.390625 
L 28.421875 72.90625 
L 38.28125 72.90625 
L 38.28125 8.296875 
L 54.390625 8.296875 
L 54.390625 0 
L 12.40625 0 
z
" id="BitstreamVeraSans-Roman-31"/>
      </defs>
      <g transform="translate(37.03625 177.48877381)scale(0.12 -0.12)">
       <use xlink:href="#BitstreamVeraSans-Roman-31"/>
       <use x="63.623046875" xlink:href="#BitstreamVeraSans-Roman-2e"/>
       <use x="95.41015625" xlink:href="#BitstreamVeraSans-Roman-30"/>
      </g>
     </g>
    </g>
    <g id="ytick_3">
     <g id="line2d_54">
      <path clip-path="url(#p8ed5d005f1)" d="M 60.12 155.789333 
L 432.864 155.789333 
" style="fill:none;stroke:#000000;stroke-dasharray:1.000000,3.000000;stroke-dashoffset:0.0;stroke-width:0.5;"/>
     </g>
     <g id="line2d_55">
      <g>
       <use style="stroke:#000000;stroke-width:0.5;" x="60.12" xlink:href="#madf4884d49" y="155.789333333"/>
      </g>
     </g>
     <g id="line2d_56">
      <g>
       <use style="stroke:#000000;stroke-width:0.5;" x="432.864" xlink:href="#m93b4ff3baf" y="155.789333333"/>
      </g>
     </g>
     <g id="text_18">
      <!-- 1.2 -->
      <g transform="translate(37.03625 159.100583333)scale(0.12 -0.12)">
       <use xlink:href="#BitstreamVeraSans-Roman-31"/>
       <use x="63.623046875" xlink:href="#BitstreamVeraSans-Roman-2e"/>
       <use x="95.41015625" xlink:href="#BitstreamVeraSans-Roman-32"/>
      </g>
     </g>
    </g>
    <g id="ytick_4">
     <g id="line2d_57">
      <path clip-path="url(#p8ed5d005f1)" d="M 60.12 137.401143 
L 432.864 137.401143 
" style="fill:none;stroke:#000000;stroke-dasharray:1.000000,3.000000;stroke-dashoffset:0.0;stroke-width:0.5;"/>
     </g>
     <g id="line2d_58">
      <g>
       <use style="stroke:#000000;stroke-width:0.5;" x="60.12" xlink:href="#madf4884d49" y="137.401142857"/>
      </g>
     </g>
     <g id="line2d_59">
      <g>
       <use style="stroke:#000000;stroke-width:0.5;" x="432.864" xlink:href="#m93b4ff3baf" y="137.401142857"/>
      </g>
     </g>
     <g id="text_19">
      <!-- 1.4 -->
      <defs>
       <path d="M 37.796875 64.3125 
L 12.890625 25.390625 
L 37.796875 25.390625 
z
M 35.203125 72.90625 
L 47.609375 72.90625 
L 47.609375 25.390625 
L 58.015625 25.390625 
L 58.015625 17.1875 
L 47.609375 17.1875 
L 47.609375 0 
L 37.796875 0 
L 37.796875 17.1875 
L 4.890625 17.1875 
L 4.890625 26.703125 
z
" id="BitstreamVeraSans-Roman-34"/>
      </defs>
      <g transform="translate(37.03625 140.712392857)scale(0.12 -0.12)">
       <use xlink:href="#BitstreamVeraSans-Roman-31"/>
       <use x="63.623046875" xlink:href="#BitstreamVeraSans-Roman-2e"/>
       <use x="95.41015625" xlink:href="#BitstreamVeraSans-Roman-34"/>
      </g>
     </g>
    </g>
    <g id="ytick_5">
     <g id="line2d_60">
      <path clip-path="url(#p8ed5d005f1)" d="M 60.12 119.012952 
L 432.864 119.012952 
" style="fill:none;stroke:#000000;stroke-dasharray:1.000000,3.000000;stroke-dashoffset:0.0;stroke-width:0.5;"/>
     </g>
     <g id="line2d_61">
      <g>
       <use style="stroke:#000000;stroke-width:0.5;" x="60.12" xlink:href="#madf4884d49" y="119.012952381"/>
      </g>
     </g>
     <g id="line2d_62">
      <g>
       <use style="stroke:#000000;stroke-width:0.5;" x="432.864" xlink:href="#m93b4ff3baf" y="119.012952381"/>
      </g>
     </g>
     <g id="text_20">
      <!-- 1.6 -->
      <defs>
       <path d="M 33.015625 40.375 
Q 26.375 40.375 22.484375 35.828125 
Q 18.609375 31.296875 18.609375 23.390625 
Q 18.609375 15.53125 22.484375 10.953125 
Q 26.375 6.390625 33.015625 6.390625 
Q 39.65625 6.390625 43.53125 10.953125 
Q 47.40625 15.53125 47.40625 23.390625 
Q 47.40625 31.296875 43.53125 35.828125 
Q 39.65625 40.375 33.015625 40.375 
M 52.59375 71.296875 
L 52.59375 62.3125 
Q 48.875 64.0625 45.09375 64.984375 
Q 41.3125 65.921875 37.59375 65.921875 
Q 27.828125 65.921875 22.671875 59.328125 
Q 17.53125 52.734375 16.796875 39.40625 
Q 19.671875 43.65625 24.015625 45.921875 
Q 28.375 48.1875 33.59375 48.1875 
Q 44.578125 48.1875 50.953125 41.515625 
Q 57.328125 34.859375 57.328125 23.390625 
Q 57.328125 12.15625 50.6875 5.359375 
Q 44.046875 -1.421875 33.015625 -1.421875 
Q 20.359375 -1.421875 13.671875 8.265625 
Q 6.984375 17.96875 6.984375 36.375 
Q 6.984375 53.65625 15.1875 63.9375 
Q 23.390625 74.21875 37.203125 74.21875 
Q 40.921875 74.21875 44.703125 73.484375 
Q 48.484375 72.75 52.59375 71.296875 
" id="BitstreamVeraSans-Roman-36"/>
      </defs>
      <g transform="translate(37.03625 122.324202381)scale(0.12 -0.12)">
       <use xlink:href="#BitstreamVeraSans-Roman-31"/>
       <use x="63.623046875" xlink:href="#BitstreamVeraSans-Roman-2e"/>
       <use x="95.41015625" xlink:href="#BitstreamVeraSans-Roman-36"/>
      </g>
     </g>
    </g>
    <g id="ytick_6">
     <g id="line2d_63">
      <path clip-path="url(#p8ed5d005f1)" d="M 60.12 100.624762 
L 432.864 100.624762 
" style="fill:none;stroke:#000000;stroke-dasharray:1.000000,3.000000;stroke-dashoffset:0.0;stroke-width:0.5;"/>
     </g>
     <g id="line2d_64">
      <g>
       <use style="stroke:#000000;stroke-width:0.5;" x="60.12" xlink:href="#madf4884d49" y="100.624761905"/>
      </g>
     </g>
     <g id="line2d_65">
      <g>
       <use style="stroke:#000000;stroke-width:0.5;" x="432.864" xlink:href="#m93b4ff3baf" y="100.624761905"/>
      </g>
     </g>
     <g id="text_21">
      <!-- 1.8 -->
      <g transform="translate(37.03625 103.936011905)scale(0.12 -0.12)">
       <use xlink:href="#BitstreamVeraSans-Roman-31"/>
       <use x="63.623046875" xlink:href="#BitstreamVeraSans-Roman-2e"/>
       <use x="95.41015625" xlink:href="#BitstreamVeraSans-Roman-38"/>
      </g>
     </g>
    </g>
    <g id="ytick_7">
     <g id="line2d_66">
      <path clip-path="url(#p8ed5d005f1)" d="M 60.12 82.236571 
L 432.864 82.236571 
" style="fill:none;stroke:#000000;stroke-dasharray:1.000000,3.000000;stroke-dashoffset:0.0;stroke-width:0.5;"/>
     </g>
     <g id="line2d_67">
      <g>
       <use style="stroke:#000000;stroke-width:0.5;" x="60.12" xlink:href="#madf4884d49" y="82.2365714286"/>
      </g>
     </g>
     <g id="line2d_68">
      <g>
       <use style="stroke:#000000;stroke-width:0.5;" x="432.864" xlink:href="#m93b4ff3baf" y="82.2365714286"/>
      </g>
     </g>
     <g id="text_22">
      <!-- 2.0 -->
      <g transform="translate(37.03625 85.5478214286)scale(0.12 -0.12)">
       <use xlink:href="#BitstreamVeraSans-Roman-32"/>
       <use x="63.623046875" xlink:href="#BitstreamVeraSans-Roman-2e"/>
       <use x="95.41015625" xlink:href="#BitstreamVeraSans-Roman-30"/>
      </g>
     </g>
    </g>
    <g id="ytick_8">
     <g id="line2d_69">
      <path clip-path="url(#p8ed5d005f1)" d="M 60.12 63.848381 
L 432.864 63.848381 
" style="fill:none;stroke:#000000;stroke-dasharray:1.000000,3.000000;stroke-dashoffset:0.0;stroke-width:0.5;"/>
     </g>
     <g id="line2d_70">
      <g>
       <use style="stroke:#000000;stroke-width:0.5;" x="60.12" xlink:href="#madf4884d49" y="63.8483809524"/>
      </g>
     </g>
     <g id="line2d_71">
      <g>
       <use style="stroke:#000000;stroke-width:0.5;" x="432.864" xlink:href="#m93b4ff3baf" y="63.8483809524"/>
      </g>
     </g>
     <g id="text_23">
      <!-- 2.2 -->
      <g transform="translate(37.03625 67.1596309524)scale(0.12 -0.12)">
       <use xlink:href="#BitstreamVeraSans-Roman-32"/>
       <use x="63.623046875" xlink:href="#BitstreamVeraSans-Roman-2e"/>
       <use x="95.41015625" xlink:href="#BitstreamVeraSans-Roman-32"/>
      </g>
     </g>
    </g>
    <g id="ytick_9">
     <g id="line2d_72">
      <path clip-path="url(#p8ed5d005f1)" d="M 60.12 45.46019 
L 432.864 45.46019 
" style="fill:none;stroke:#000000;stroke-dasharray:1.000000,3.000000;stroke-dashoffset:0.0;stroke-width:0.5;"/>
     </g>
     <g id="line2d_73">
      <g>
       <use style="stroke:#000000;stroke-width:0.5;" x="60.12" xlink:href="#madf4884d49" y="45.4601904762"/>
      </g>
     </g>
     <g id="line2d_74">
      <g>
       <use style="stroke:#000000;stroke-width:0.5;" x="432.864" xlink:href="#m93b4ff3baf" y="45.4601904762"/>
      </g>
     </g>
     <g id="text_24">
      <!-- 2.4 -->
      <g transform="translate(37.03625 48.7714404762)scale(0.12 -0.12)">
       <use xlink:href="#BitstreamVeraSans-Roman-32"/>
       <use x="63.623046875" xlink:href="#BitstreamVeraSans-Roman-2e"/>
       <use x="95.41015625" xlink:href="#BitstreamVeraSans-Roman-34"/>
      </g>
     </g>
    </g>
    <g id="ytick_10">
     <g id="line2d_75">
      <path clip-path="url(#p8ed5d005f1)" d="M 60.12 27.072 
L 432.864 27.072 
" style="fill:none;stroke:#000000;stroke-dasharray:1.000000,3.000000;stroke-dashoffset:0.0;stroke-width:0.5;"/>
     </g>
     <g id="line2d_76">
      <g>
       <use style="stroke:#000000;stroke-width:0.5;" x="60.12" xlink:href="#madf4884d49" y="27.072"/>
      </g>
     </g>
     <g id="line2d_77">
      <g>
       <use style="stroke:#000000;stroke-width:0.5;" x="432.864" xlink:href="#m93b4ff3baf" y="27.072"/>
      </g>
     </g>
     <g id="text_25">
      <!-- 2.6 -->
      <g transform="translate(37.03625 30.38325)scale(0.12 -0.12)">
       <use xlink:href="#BitstreamVeraSans-Roman-32"/>
       <use x="63.623046875" xlink:href="#BitstreamVeraSans-Roman-2e"/>
       <use x="95.41015625" xlink:href="#BitstreamVeraSans-Roman-36"/>
      </g>
     </g>
    </g>
    <g id="text_26">
     <!-- Normalized cost -->
     <defs>
      <path d="M 41.109375 46.296875 
Q 39.59375 47.171875 37.8125 47.578125 
Q 36.03125 48 33.890625 48 
Q 26.265625 48 22.1875 43.046875 
Q 18.109375 38.09375 18.109375 28.8125 
L 18.109375 0 
L 9.078125 0 
L 9.078125 54.6875 
L 18.109375 54.6875 
L 18.109375 46.1875 
Q 20.953125 51.171875 25.484375 53.578125 
Q 30.03125 56 36.53125 56 
Q 37.453125 56 38.578125 55.875 
Q 39.703125 55.765625 41.0625 55.515625 
z
" id="BitstreamVeraSans-Roman-72"/>
      <path d="M 30.609375 48.390625 
Q 23.390625 48.390625 19.1875 42.75 
Q 14.984375 37.109375 14.984375 27.296875 
Q 14.984375 17.484375 19.15625 11.84375 
Q 23.34375 6.203125 30.609375 6.203125 
Q 37.796875 6.203125 41.984375 11.859375 
Q 46.1875 17.53125 46.1875 27.296875 
Q 46.1875 37.015625 41.984375 42.703125 
Q 37.796875 48.390625 30.609375 48.390625 
M 30.609375 56 
Q 42.328125 56 49.015625 48.375 
Q 55.71875 40.765625 55.71875 27.296875 
Q 55.71875 13.875 49.015625 6.21875 
Q 42.328125 -1.421875 30.609375 -1.421875 
Q 18.84375 -1.421875 12.171875 6.21875 
Q 5.515625 13.875 5.515625 27.296875 
Q 5.515625 40.765625 12.171875 48.375 
Q 18.84375 56 30.609375 56 
" id="BitstreamVeraSans-Roman-6f"/>
      <path d="M 52 44.1875 
Q 55.375 50.25 60.0625 53.125 
Q 64.75 56 71.09375 56 
Q 79.640625 56 84.28125 50.015625 
Q 88.921875 44.046875 88.921875 33.015625 
L 88.921875 0 
L 79.890625 0 
L 79.890625 32.71875 
Q 79.890625 40.578125 77.09375 44.375 
Q 74.3125 48.1875 68.609375 48.1875 
Q 61.625 48.1875 57.5625 43.546875 
Q 53.515625 38.921875 53.515625 30.90625 
L 53.515625 0 
L 44.484375 0 
L 44.484375 32.71875 
Q 44.484375 40.625 41.703125 44.40625 
Q 38.921875 48.1875 33.109375 48.1875 
Q 26.21875 48.1875 22.15625 43.53125 
Q 18.109375 38.875 18.109375 30.90625 
L 18.109375 0 
L 9.078125 0 
L 9.078125 54.6875 
L 18.109375 54.6875 
L 18.109375 46.1875 
Q 21.1875 51.21875 25.484375 53.609375 
Q 29.78125 56 35.6875 56 
Q 41.65625 56 45.828125 52.96875 
Q 50 49.953125 52 44.1875 
" id="BitstreamVeraSans-Roman-6d"/>
      <path d="M 45.40625 46.390625 
L 45.40625 75.984375 
L 54.390625 75.984375 
L 54.390625 0 
L 45.40625 0 
L 45.40625 8.203125 
Q 42.578125 3.328125 38.25 0.953125 
Q 33.9375 -1.421875 27.875 -1.421875 
Q 17.96875 -1.421875 11.734375 6.484375 
Q 5.515625 14.40625 5.515625 27.296875 
Q 5.515625 40.1875 11.734375 48.09375 
Q 17.96875 56 27.875 56 
Q 33.9375 56 38.25 53.625 
Q 42.578125 51.265625 45.40625 46.390625 
M 14.796875 27.296875 
Q 14.796875 17.390625 18.875 11.75 
Q 22.953125 6.109375 30.078125 6.109375 
Q 37.203125 6.109375 41.296875 11.75 
Q 45.40625 17.390625 45.40625 27.296875 
Q 45.40625 37.203125 41.296875 42.84375 
Q 37.203125 48.484375 30.078125 48.484375 
Q 22.953125 48.484375 18.875 42.84375 
Q 14.796875 37.203125 14.796875 27.296875 
" id="BitstreamVeraSans-Roman-64"/>
      <path d="M 5.515625 54.6875 
L 48.1875 54.6875 
L 48.1875 46.484375 
L 14.40625 7.171875 
L 48.1875 7.171875 
L 48.1875 0 
L 4.296875 0 
L 4.296875 8.203125 
L 38.09375 47.515625 
L 5.515625 47.515625 
z
" id="BitstreamVeraSans-Roman-7a"/>
      <path d="M 44.28125 53.078125 
L 44.28125 44.578125 
Q 40.484375 46.53125 36.375 47.5 
Q 32.28125 48.484375 27.875 48.484375 
Q 21.1875 48.484375 17.84375 46.4375 
Q 14.5 44.390625 14.5 40.28125 
Q 14.5 37.15625 16.890625 35.375 
Q 19.28125 33.59375 26.515625 31.984375 
L 29.59375 31.296875 
Q 39.15625 29.25 43.1875 25.515625 
Q 47.21875 21.78125 47.21875 15.09375 
Q 47.21875 7.46875 41.1875 3.015625 
Q 35.15625 -1.421875 24.609375 -1.421875 
Q 20.21875 -1.421875 15.453125 -0.5625 
Q 10.6875 0.296875 5.421875 2 
L 5.421875 11.28125 
Q 10.40625 8.6875 15.234375 7.390625 
Q 20.0625 6.109375 24.8125 6.109375 
Q 31.15625 6.109375 34.5625 8.28125 
Q 37.984375 10.453125 37.984375 14.40625 
Q 37.984375 18.0625 35.515625 20.015625 
Q 33.0625 21.96875 24.703125 23.78125 
L 21.578125 24.515625 
Q 13.234375 26.265625 9.515625 29.90625 
Q 5.8125 33.546875 5.8125 39.890625 
Q 5.8125 47.609375 11.28125 51.796875 
Q 16.75 56 26.8125 56 
Q 31.78125 56 36.171875 55.265625 
Q 40.578125 54.546875 44.28125 53.078125 
" id="BitstreamVeraSans-Roman-73"/>
      <path d="M 48.78125 52.59375 
L 48.78125 44.1875 
Q 44.96875 46.296875 41.140625 47.34375 
Q 37.3125 48.390625 33.40625 48.390625 
Q 24.65625 48.390625 19.8125 42.84375 
Q 14.984375 37.3125 14.984375 27.296875 
Q 14.984375 17.28125 19.8125 11.734375 
Q 24.65625 6.203125 33.40625 6.203125 
Q 37.3125 6.203125 41.140625 7.25 
Q 44.96875 8.296875 48.78125 10.40625 
L 48.78125 2.09375 
Q 45.015625 0.34375 40.984375 -0.53125 
Q 36.96875 -1.421875 32.421875 -1.421875 
Q 20.0625 -1.421875 12.78125 6.34375 
Q 5.515625 14.109375 5.515625 27.296875 
Q 5.515625 40.671875 12.859375 48.328125 
Q 20.21875 56 33.015625 56 
Q 37.15625 56 41.109375 55.140625 
Q 45.0625 54.296875 48.78125 52.59375 
" id="BitstreamVeraSans-Roman-63"/>
      <path d="M 56.203125 29.59375 
L 56.203125 25.203125 
L 14.890625 25.203125 
Q 15.484375 15.921875 20.484375 11.0625 
Q 25.484375 6.203125 34.421875 6.203125 
Q 39.59375 6.203125 44.453125 7.46875 
Q 49.3125 8.734375 54.109375 11.28125 
L 54.109375 2.78125 
Q 49.265625 0.734375 44.1875 -0.34375 
Q 39.109375 -1.421875 33.890625 -1.421875 
Q 20.796875 -1.421875 13.15625 6.1875 
Q 5.515625 13.8125 5.515625 26.8125 
Q 5.515625 40.234375 12.765625 48.109375 
Q 20.015625 56 32.328125 56 
Q 43.359375 56 49.78125 48.890625 
Q 56.203125 41.796875 56.203125 29.59375 
M 47.21875 32.234375 
Q 47.125 39.59375 43.09375 43.984375 
Q 39.0625 48.390625 32.421875 48.390625 
Q 24.90625 48.390625 20.390625 44.140625 
Q 15.875 39.890625 15.1875 32.171875 
z
" id="BitstreamVeraSans-Roman-65"/>
      <path d="M 9.8125 72.90625 
L 23.09375 72.90625 
L 55.421875 11.921875 
L 55.421875 72.90625 
L 64.984375 72.90625 
L 64.984375 0 
L 51.703125 0 
L 19.390625 60.984375 
L 19.390625 0 
L 9.8125 0 
z
" id="BitstreamVeraSans-Roman-4e"/>
     </defs>
     <g transform="translate(29.540625 158.304482143)rotate(-90.0)scale(0.12 -0.12)">
      <use xlink:href="#BitstreamVeraSans-Roman-4e"/>
      <use x="74.8046875" xlink:href="#BitstreamVeraSans-Roman-6f"/>
      <use x="135.986328125" xlink:href="#BitstreamVeraSans-Roman-72"/>
      <use x="177.083984375" xlink:href="#BitstreamVeraSans-Roman-6d"/>
      <use x="274.49609375" xlink:href="#BitstreamVeraSans-Roman-61"/>
      <use x="335.775390625" xlink:href="#BitstreamVeraSans-Roman-6c"/>
      <use x="363.55859375" xlink:href="#BitstreamVeraSans-Roman-69"/>
      <use x="391.341796875" xlink:href="#BitstreamVeraSans-Roman-7a"/>
      <use x="443.83203125" xlink:href="#BitstreamVeraSans-Roman-65"/>
      <use x="505.35546875" xlink:href="#BitstreamVeraSans-Roman-64"/>
      <use x="568.83203125" xlink:href="#BitstreamVeraSans-Roman-20"/>
      <use x="600.619140625" xlink:href="#BitstreamVeraSans-Roman-63"/>
      <use x="655.599609375" xlink:href="#BitstreamVeraSans-Roman-6f"/>
      <use x="716.78125" xlink:href="#BitstreamVeraSans-Roman-73"/>
      <use x="768.880859375" xlink:href="#BitstreamVeraSans-Roman-74"/>
     </g>
    </g>
   </g>
   <g id="legend_1">
    <g id="patch_7">
     <path d="M 67.32 160.39935 
L 178.7085 160.39935 
L 178.7085 34.272 
L 67.32 34.272 
z
" style="fill:#ffffff;stroke:#000000;stroke-linejoin:miter;"/>
    </g>
    <g id="line2d_78">
     <path d="M 77.4 45.93375 
L 97.56 45.93375 
" style="fill:none;stroke:#ff0000;stroke-linecap:square;"/>
    </g>
    <g id="line2d_79">
     <g>
      <use style="fill:#ff0000;stroke:#000000;stroke-width:0.5;" x="77.4" xlink:href="#me6b6d4a97e" y="45.93375"/>
      <use style="fill:#ff0000;stroke:#000000;stroke-width:0.5;" x="97.56" xlink:href="#me6b6d4a97e" y="45.93375"/>
     </g>
    </g>
    <g id="text_27">
     <!-- 0,999 -->
     <g transform="translate(113.4 50.97375)scale(0.144 -0.144)">
      <use xlink:href="#BitstreamVeraSans-Roman-30"/>
      <use x="63.623046875" xlink:href="#BitstreamVeraSans-Roman-2c"/>
      <use x="95.41015625" xlink:href="#BitstreamVeraSans-Roman-39"/>
      <use x="159.033203125" xlink:href="#BitstreamVeraSans-Roman-39"/>
      <use x="222.65625" xlink:href="#BitstreamVeraSans-Roman-39"/>
     </g>
    </g>
    <g id="line2d_80">
     <path d="M 77.4 67.07025 
L 97.56 67.07025 
" style="fill:none;stroke:#0000ff;stroke-linecap:square;"/>
    </g>
    <g id="line2d_81">
     <g>
      <use style="fill:#0000ff;stroke:#0000ff;stroke-width:0.5;" x="77.4" xlink:href="#m563a0ec1de" y="67.07025"/>
      <use style="fill:#0000ff;stroke:#0000ff;stroke-width:0.5;" x="97.56" xlink:href="#m563a0ec1de" y="67.07025"/>
     </g>
    </g>
    <g id="text_28">
     <!-- 0,9995 -->
     <g transform="translate(113.4 72.11025)scale(0.144 -0.144)">
      <use xlink:href="#BitstreamVeraSans-Roman-30"/>
      <use x="63.623046875" xlink:href="#BitstreamVeraSans-Roman-2c"/>
      <use x="95.41015625" xlink:href="#BitstreamVeraSans-Roman-39"/>
      <use x="159.033203125" xlink:href="#BitstreamVeraSans-Roman-39"/>
      <use x="222.65625" xlink:href="#BitstreamVeraSans-Roman-39"/>
      <use x="286.279296875" xlink:href="#BitstreamVeraSans-Roman-35"/>
     </g>
    </g>
    <g id="line2d_82">
     <path d="M 77.4 88.20675 
L 97.56 88.20675 
" style="fill:none;stroke:#008000;stroke-linecap:square;"/>
    </g>
    <g id="line2d_83">
     <g>
      <use style="fill:#008000;stroke:#000000;stroke-linejoin:miter;stroke-width:0.5;" x="77.4" xlink:href="#m75a3b83b14" y="88.20675"/>
      <use style="fill:#008000;stroke:#000000;stroke-linejoin:miter;stroke-width:0.5;" x="97.56" xlink:href="#m75a3b83b14" y="88.20675"/>
     </g>
    </g>
    <g id="text_29">
     <!-- 0,9999 -->
     <g transform="translate(113.4 93.24675)scale(0.144 -0.144)">
      <use xlink:href="#BitstreamVeraSans-Roman-30"/>
      <use x="63.623046875" xlink:href="#BitstreamVeraSans-Roman-2c"/>
      <use x="95.41015625" xlink:href="#BitstreamVeraSans-Roman-39"/>
      <use x="159.033203125" xlink:href="#BitstreamVeraSans-Roman-39"/>
      <use x="222.65625" xlink:href="#BitstreamVeraSans-Roman-39"/>
      <use x="286.279296875" xlink:href="#BitstreamVeraSans-Roman-39"/>
     </g>
    </g>
    <g id="line2d_84">
     <path d="M 77.4 109.34325 
L 97.56 109.34325 
" style="fill:none;stroke:#bfbf00;stroke-linecap:square;"/>
    </g>
    <g id="line2d_85">
     <g>
      <use style="fill:#bfbf00;stroke:#000000;stroke-linejoin:miter;stroke-width:0.5;" x="77.4" xlink:href="#mbbe4a5b5c7" y="109.34325"/>
      <use style="fill:#bfbf00;stroke:#000000;stroke-linejoin:miter;stroke-width:0.5;" x="97.56" xlink:href="#mbbe4a5b5c7" y="109.34325"/>
     </g>
    </g>
    <g id="text_30">
     <!-- 0,99995 -->
     <g transform="translate(113.4 114.38325)scale(0.144 -0.144)">
      <use xlink:href="#BitstreamVeraSans-Roman-30"/>
      <use x="63.623046875" xlink:href="#BitstreamVeraSans-Roman-2c"/>
      <use x="95.41015625" xlink:href="#BitstreamVeraSans-Roman-39"/>
      <use x="159.033203125" xlink:href="#BitstreamVeraSans-Roman-39"/>
      <use x="222.65625" xlink:href="#BitstreamVeraSans-Roman-39"/>
      <use x="286.279296875" xlink:href="#BitstreamVeraSans-Roman-39"/>
      <use x="349.90234375" xlink:href="#BitstreamVeraSans-Roman-35"/>
     </g>
    </g>
    <g id="line2d_86">
     <path d="M 77.4 140.03955 
L 97.56 140.03955 
" style="fill:none;stroke:#000000;stroke-linecap:square;"/>
    </g>
    <g id="line2d_87">
     <g>
      <use style="stroke:#000000;stroke-linejoin:miter;stroke-width:0.5;" x="77.4" xlink:href="#mc85fcdd20c" y="140.03955"/>
      <use style="stroke:#000000;stroke-linejoin:miter;stroke-width:0.5;" x="97.56" xlink:href="#mc85fcdd20c" y="140.03955"/>
     </g>
    </g>
    <g id="text_31">
     <!-- 0,99999 -->
     <g transform="translate(113.4 135.51975)scale(0.144 -0.144)">
      <use xlink:href="#BitstreamVeraSans-Roman-30"/>
      <use x="63.623046875" xlink:href="#BitstreamVeraSans-Roman-2c"/>
      <use x="95.41015625" xlink:href="#BitstreamVeraSans-Roman-39"/>
      <use x="159.033203125" xlink:href="#BitstreamVeraSans-Roman-39"/>
      <use x="222.65625" xlink:href="#BitstreamVeraSans-Roman-39"/>
      <use x="286.279296875" xlink:href="#BitstreamVeraSans-Roman-39"/>
      <use x="349.90234375" xlink:href="#BitstreamVeraSans-Roman-39"/>
     </g>
     <!--  -->
     <g transform="translate(113.4 151.6446)scale(0.144 -0.144)"/>
    </g>
   </g>
  </g>
 </g>
 <defs>
  <clipPath id="p8ed5d005f1">
   <rect height="165.493714286" width="372.744" x="60.12" y="27.072"/>
  </clipPath>
 </defs>
</svg>
